<?xml version="1.0" encoding="UTF-8" standalone="no"?>
<!DOCTYPE svg PUBLIC "-//W3C//DTD SVG 1.1//EN"
 "http://www.w3.org/Graphics/SVG/1.1/DTD/svg11.dtd">
<!-- Generated by graphviz version 5.0.0 (20220707.1540)
 -->
<!-- Title: dependencies Pages: 1 -->
<svg width="256pt" height="247pt"
 viewBox="0.00 0.00 256.00 246.80" xmlns="http://www.w3.org/2000/svg" xmlns:xlink="http://www.w3.org/1999/xlink">
<g id="graph0" class="graph" transform="scale(1 1) rotate(0) translate(4 242.8)">
<title>dependencies</title>
<polygon fill="white" stroke="transparent" points="-4,4 -4,-242.8 252,-242.8 252,4 -4,4"/>
<text text-anchor="middle" x="124" y="-8.2" font-family="sans-serif" font-size="14.00">dependencies</text>
<g id="clust1" class="cluster">
<title>cluster_LoggerModule</title>
<polygon fill="none" stroke="black" stroke-dasharray="1,5" points="8,-32.8 8,-230.8 240,-230.8 240,-32.8 8,-32.8"/>
</g>
<g id="clust4" class="cluster">
<title>cluster_LoggerModule_exports</title>
<polygon fill="none" stroke="black" points="82,-170.8 82,-222.8 158,-222.8 158,-170.8 82,-170.8"/>
</g>
<g id="clust3" class="cluster">
<title>cluster_LoggerModule_imports</title>
<polygon fill="none" stroke="black" points="118,-40.8 118,-92.8 232,-92.8 232,-40.8 118,-40.8"/>
</g>
<g id="clust6" class="cluster">
<title>cluster_LoggerModule_providers</title>
<polygon fill="none" stroke="black" points="16,-40.8 16,-92.8 110,-92.8 110,-40.8 16,-40.8"/>
</g>
<!-- ConfigModule -->
<g id="node1" class="node">
<title>ConfigModule</title>
<polygon fill="#8dd3c7" stroke="black" points="224.44,-84.8 221.44,-88.8 200.44,-88.8 197.44,-84.8 125.56,-84.8 125.56,-48.8 224.44,-48.8 224.44,-84.8"/>
<text text-anchor="middle" x="175" y="-62.6" font-family="Times,serif" font-size="14.00">ConfigModule</text>
</g>
<!-- LoggerModule -->
<g id="node2" class="node">
<title>LoggerModule</title>
<polygon fill="#8dd3c7" stroke="black" points="169.98,-149.8 166.98,-153.8 145.98,-153.8 142.98,-149.8 70.02,-149.8 70.02,-113.8 169.98,-113.8 169.98,-149.8"/>
<text text-anchor="middle" x="120" y="-127.6" font-family="Times,serif" font-size="14.00">LoggerModule</text>
</g>
<!-- ConfigModule&#45;&gt;LoggerModule -->
<g id="edge1" class="edge">
<title>ConfigModule&#45;&gt;LoggerModule</title>
<path fill="none" stroke="black" d="M147.88,-84.91C147.88,-84.91 147.88,-103.79 147.88,-103.79"/>
<polygon fill="black" stroke="black" points="144.38,-103.79 147.88,-113.79 151.38,-103.79 144.38,-103.79"/>
</g>
<!-- Logger  -->
<g id="node3" class="node">
<title>Logger </title>
<polygon fill="#fb8072" stroke="black" points="149.93,-214.8 90.07,-214.8 90.07,-178.8 149.93,-178.8 149.93,-214.8"/>
<text text-anchor="middle" x="120" y="-192.6" font-family="Times,serif" font-size="14.00">Logger </text>
</g>
<!-- LoggerModule&#45;&gt;Logger  -->
<g id="edge2" class="edge">
<title>LoggerModule&#45;&gt;Logger </title>
<path fill="none" stroke="black" stroke-dasharray="5,2" d="M120,-149.91C120,-149.91 120,-168.79 120,-168.79"/>
<polygon fill="black" stroke="black" points="116.5,-168.79 120,-178.79 123.5,-168.79 116.5,-168.79"/>
</g>
<!-- Logger -->
<g id="node4" class="node">
<title>Logger</title>
<ellipse fill="#fdb462" stroke="black" cx="63" cy="-66.8" rx="38.85" ry="18"/>
<text text-anchor="middle" x="63" y="-62.6" font-family="Times,serif" font-size="14.00">Logger</text>
</g>
<!-- Logger&#45;&gt;LoggerModule -->
<g id="edge3" class="edge">
<title>Logger&#45;&gt;LoggerModule</title>
<path fill="none" stroke="black" d="M85.97,-81.55C85.97,-81.55 85.97,-103.39 85.97,-103.39"/>
<polygon fill="black" stroke="black" points="82.47,-103.39 85.97,-113.39 89.47,-103.39 82.47,-103.39"/>
</g>
</g>
</svg>
