<?xml version="1.0" encoding="UTF-8" standalone="no"?>
<!DOCTYPE svg PUBLIC "-//W3C//DTD SVG 1.1//EN"
 "http://www.w3.org/Graphics/SVG/1.1/DTD/svg11.dtd">
<!-- Generated by graphviz version 5.0.0 (20220707.1540)
 -->
<!-- Title: dependencies Pages: 1 -->
<svg width="332pt" height="247pt"
 viewBox="0.00 0.00 332.00 246.80" xmlns="http://www.w3.org/2000/svg" xmlns:xlink="http://www.w3.org/1999/xlink">
<g id="graph0" class="graph" transform="scale(1 1) rotate(0) translate(4 242.8)">
<title>dependencies</title>
<polygon fill="white" stroke="transparent" points="-4,4 -4,-242.8 328,-242.8 328,4 -4,4"/>
<text text-anchor="middle" x="162" y="-8.2" font-family="sans-serif" font-size="14.00">dependencies</text>
<g id="clust1" class="cluster">
<title>cluster_RedisCacheModule</title>
<polygon fill="none" stroke="black" stroke-dasharray="1,5" points="8,-32.8 8,-230.8 316,-230.8 316,-32.8 8,-32.8"/>
</g>
<g id="clust4" class="cluster">
<title>cluster_RedisCacheModule_exports</title>
<polygon fill="none" stroke="black" points="16,-170.8 16,-222.8 308,-222.8 308,-170.8 16,-170.8"/>
</g>
<g id="clust6" class="cluster">
<title>cluster_RedisCacheModule_providers</title>
<polygon fill="none" stroke="black" points="68,-40.8 68,-92.8 256,-92.8 256,-40.8 68,-40.8"/>
</g>
<!-- RedisCacheModule  -->
<g id="node1" class="node">
<title>RedisCacheModule </title>
<polygon fill="#fb8072" stroke="black" points="299.92,-214.8 170.08,-214.8 170.08,-178.8 299.92,-178.8 299.92,-214.8"/>
<text text-anchor="middle" x="235" y="-192.6" font-family="Times,serif" font-size="14.00">RedisCacheModule </text>
</g>
<!-- RedisCacheService  -->
<g id="node2" class="node">
<title>RedisCacheService </title>
<polygon fill="#fb8072" stroke="black" points="152.35,-214.8 23.65,-214.8 23.65,-178.8 152.35,-178.8 152.35,-214.8"/>
<text text-anchor="middle" x="88" y="-192.6" font-family="Times,serif" font-size="14.00">RedisCacheService </text>
</g>
<!-- RedisCacheModule -->
<g id="node3" class="node">
<title>RedisCacheModule</title>
<polygon fill="#8dd3c7" stroke="black" points="225.42,-149.8 222.42,-153.8 201.42,-153.8 198.42,-149.8 98.58,-149.8 98.58,-113.8 225.42,-113.8 225.42,-149.8"/>
<text text-anchor="middle" x="162" y="-127.6" font-family="Times,serif" font-size="14.00">RedisCacheModule</text>
</g>
<!-- RedisCacheModule&#45;&gt;RedisCacheModule  -->
<g id="edge1" class="edge">
<title>RedisCacheModule&#45;&gt;RedisCacheModule </title>
<path fill="none" stroke="black" stroke-dasharray="5,2" d="M197.62,-149.91C197.62,-149.91 197.62,-168.79 197.62,-168.79"/>
<polygon fill="black" stroke="black" points="194.13,-168.79 197.62,-178.79 201.13,-168.79 194.13,-168.79"/>
</g>
<!-- RedisCacheModule&#45;&gt;RedisCacheService  -->
<g id="edge2" class="edge">
<title>RedisCacheModule&#45;&gt;RedisCacheService </title>
<path fill="none" stroke="black" stroke-dasharray="5,2" d="M125.48,-149.91C125.48,-149.91 125.48,-168.79 125.48,-168.79"/>
<polygon fill="black" stroke="black" points="121.98,-168.79 125.48,-178.79 128.98,-168.79 121.98,-168.79"/>
</g>
<!-- RedisCacheService -->
<g id="node4" class="node">
<title>RedisCacheService</title>
<ellipse fill="#fdb462" stroke="black" cx="162" cy="-66.8" rx="86.24" ry="18"/>
<text text-anchor="middle" x="162" y="-62.6" font-family="Times,serif" font-size="14.00">RedisCacheService</text>
</g>
<!-- RedisCacheService&#45;&gt;RedisCacheModule -->
<g id="edge3" class="edge">
<title>RedisCacheService&#45;&gt;RedisCacheModule</title>
<path fill="none" stroke="black" d="M162,-84.91C162,-84.91 162,-103.79 162,-103.79"/>
<polygon fill="black" stroke="black" points="158.5,-103.79 162,-113.79 165.5,-103.79 158.5,-103.79"/>
</g>
</g>
</svg>
