<?xml version="1.0" encoding="UTF-8" standalone="no"?>
<!DOCTYPE svg PUBLIC "-//W3C//DTD SVG 1.1//EN"
 "http://www.w3.org/Graphics/SVG/1.1/DTD/svg11.dtd">
<!-- Generated by graphviz version 5.0.0 (20220707.1540)
 -->
<!-- Title: dependencies Pages: 1 -->
<svg width="464pt" height="174pt"
 viewBox="0.00 0.00 464.00 173.80" xmlns="http://www.w3.org/2000/svg" xmlns:xlink="http://www.w3.org/1999/xlink">
<g id="graph0" class="graph" transform="scale(1 1) rotate(0) translate(4 169.8)">
<title>dependencies</title>
<polygon fill="white" stroke="transparent" points="-4,4 -4,-169.8 460,-169.8 460,4 -4,4"/>
<text text-anchor="middle" x="228" y="-8.2" font-family="sans-serif" font-size="14.00">dependencies</text>
<g id="clust1" class="cluster">
<title>cluster_CompanyModule</title>
<polygon fill="none" stroke="black" stroke-dasharray="1,5" points="8,-32.8 8,-157.8 448,-157.8 448,-32.8 8,-32.8"/>
</g>
<g id="clust3" class="cluster">
<title>cluster_CompanyModule_imports</title>
<polygon fill="none" stroke="black" points="196,-40.8 196,-92.8 440,-92.8 440,-40.8 196,-40.8"/>
</g>
<g id="clust6" class="cluster">
<title>cluster_CompanyModule_providers</title>
<polygon fill="none" stroke="black" points="16,-40.8 16,-92.8 188,-92.8 188,-40.8 16,-40.8"/>
</g>
<!-- DatabaseModule -->
<g id="node1" class="node">
<title>DatabaseModule</title>
<polygon fill="#8dd3c7" stroke="black" points="432.36,-84.8 429.36,-88.8 408.36,-88.8 405.36,-84.8 321.64,-84.8 321.64,-48.8 432.36,-48.8 432.36,-84.8"/>
<text text-anchor="middle" x="377" y="-62.6" font-family="Times,serif" font-size="14.00">DatabaseModule</text>
</g>
<!-- CompanyModule -->
<g id="node3" class="node">
<title>CompanyModule</title>
<polygon fill="#8dd3c7" stroke="black" points="310.99,-149.8 307.99,-153.8 286.99,-153.8 283.99,-149.8 197.01,-149.8 197.01,-113.8 310.99,-113.8 310.99,-149.8"/>
<text text-anchor="middle" x="254" y="-127.6" font-family="Times,serif" font-size="14.00">CompanyModule</text>
</g>
<!-- DatabaseModule&#45;&gt;CompanyModule -->
<g id="edge1" class="edge">
<title>DatabaseModule&#45;&gt;CompanyModule</title>
<path fill="none" stroke="black" d="M321.56,-66.8C313.3,-66.8 307.49,-66.8 307.49,-66.8 307.49,-66.8 307.49,-103.69 307.49,-103.69"/>
<polygon fill="black" stroke="black" points="303.99,-103.69 307.49,-113.69 310.99,-103.69 303.99,-103.69"/>
</g>
<!-- LoggerModule -->
<g id="node2" class="node">
<title>LoggerModule</title>
<polygon fill="#8dd3c7" stroke="black" points="303.98,-84.8 300.98,-88.8 279.98,-88.8 276.98,-84.8 204.02,-84.8 204.02,-48.8 303.98,-48.8 303.98,-84.8"/>
<text text-anchor="middle" x="254" y="-62.6" font-family="Times,serif" font-size="14.00">LoggerModule</text>
</g>
<!-- LoggerModule&#45;&gt;CompanyModule -->
<g id="edge2" class="edge">
<title>LoggerModule&#45;&gt;CompanyModule</title>
<path fill="none" stroke="black" d="M254,-84.91C254,-84.91 254,-103.79 254,-103.79"/>
<polygon fill="black" stroke="black" points="250.5,-103.79 254,-113.79 257.5,-103.79 250.5,-103.79"/>
</g>
<!-- CompanyService -->
<g id="node4" class="node">
<title>CompanyService</title>
<ellipse fill="#fdb462" stroke="black" cx="102" cy="-66.8" rx="77.59" ry="18"/>
<text text-anchor="middle" x="102" y="-62.6" font-family="Times,serif" font-size="14.00">CompanyService</text>
</g>
<!-- CompanyService&#45;&gt;CompanyModule -->
<g id="edge3" class="edge">
<title>CompanyService&#45;&gt;CompanyModule</title>
<path fill="none" stroke="black" d="M179.62,-66.8C191.82,-66.8 200.51,-66.8 200.51,-66.8 200.51,-66.8 200.51,-103.69 200.51,-103.69"/>
<polygon fill="black" stroke="black" points="197.01,-103.69 200.51,-113.69 204.01,-103.69 197.01,-103.69"/>
</g>
</g>
</svg>
