<?xml version="1.0" encoding="UTF-8" standalone="no"?>
<!DOCTYPE svg PUBLIC "-//W3C//DTD SVG 1.1//EN"
 "http://www.w3.org/Graphics/SVG/1.1/DTD/svg11.dtd">
<!-- Generated by graphviz version 5.0.0 (20220707.1540)
 -->
<!-- Title: dependencies Pages: 1 -->
<svg width="310pt" height="247pt"
 viewBox="0.00 0.00 310.00 246.80" xmlns="http://www.w3.org/2000/svg" xmlns:xlink="http://www.w3.org/1999/xlink">
<g id="graph0" class="graph" transform="scale(1 1) rotate(0) translate(4 242.8)">
<title>dependencies</title>
<polygon fill="white" stroke="transparent" points="-4,4 -4,-242.8 306,-242.8 306,4 -4,4"/>
<text text-anchor="middle" x="151" y="-8.2" font-family="sans-serif" font-size="14.00">dependencies</text>
<g id="clust1" class="cluster">
<title>cluster_SearchModule</title>
<polygon fill="none" stroke="black" stroke-dasharray="1,5" points="8,-32.8 8,-230.8 294,-230.8 294,-32.8 8,-32.8"/>
</g>
<g id="clust3" class="cluster">
<title>cluster_SearchModule_imports</title>
<polygon fill="none" stroke="black" points="172,-40.8 172,-92.8 286,-92.8 286,-40.8 172,-40.8"/>
</g>
<g id="clust4" class="cluster">
<title>cluster_SearchModule_exports</title>
<polygon fill="none" stroke="black" points="101,-170.8 101,-222.8 217,-222.8 217,-170.8 101,-170.8"/>
</g>
<g id="clust6" class="cluster">
<title>cluster_SearchModule_providers</title>
<polygon fill="none" stroke="black" points="16,-40.8 16,-92.8 164,-92.8 164,-40.8 16,-40.8"/>
</g>
<!-- ConfigModule -->
<g id="node1" class="node">
<title>ConfigModule</title>
<polygon fill="#8dd3c7" stroke="black" points="278.44,-84.8 275.44,-88.8 254.44,-88.8 251.44,-84.8 179.56,-84.8 179.56,-48.8 278.44,-48.8 278.44,-84.8"/>
<text text-anchor="middle" x="229" y="-62.6" font-family="Times,serif" font-size="14.00">ConfigModule</text>
</g>
<!-- SearchModule -->
<g id="node2" class="node">
<title>SearchModule</title>
<polygon fill="#8dd3c7" stroke="black" points="207.64,-149.8 204.64,-153.8 183.64,-153.8 180.64,-149.8 110.36,-149.8 110.36,-113.8 207.64,-113.8 207.64,-149.8"/>
<text text-anchor="middle" x="159" y="-127.6" font-family="Times,serif" font-size="14.00">SearchModule</text>
</g>
<!-- ConfigModule&#45;&gt;SearchModule -->
<g id="edge1" class="edge">
<title>ConfigModule&#45;&gt;SearchModule</title>
<path fill="none" stroke="black" d="M193.8,-84.91C193.8,-84.91 193.8,-103.79 193.8,-103.79"/>
<polygon fill="black" stroke="black" points="190.3,-103.79 193.8,-113.79 197.3,-103.79 190.3,-103.79"/>
</g>
<!-- SearchService  -->
<g id="node3" class="node">
<title>SearchService </title>
<polygon fill="#fb8072" stroke="black" points="208.57,-214.8 109.43,-214.8 109.43,-178.8 208.57,-178.8 208.57,-214.8"/>
<text text-anchor="middle" x="159" y="-192.6" font-family="Times,serif" font-size="14.00">SearchService </text>
</g>
<!-- SearchModule&#45;&gt;SearchService  -->
<g id="edge2" class="edge">
<title>SearchModule&#45;&gt;SearchService </title>
<path fill="none" stroke="black" stroke-dasharray="5,2" d="M159,-149.91C159,-149.91 159,-168.79 159,-168.79"/>
<polygon fill="black" stroke="black" points="155.5,-168.79 159,-178.79 162.5,-168.79 155.5,-168.79"/>
</g>
<!-- SearchService -->
<g id="node4" class="node">
<title>SearchService</title>
<ellipse fill="#fdb462" stroke="black" cx="90" cy="-66.8" rx="66.03" ry="18"/>
<text text-anchor="middle" x="90" y="-62.6" font-family="Times,serif" font-size="14.00">SearchService</text>
</g>
<!-- SearchService&#45;&gt;SearchModule -->
<g id="edge3" class="edge">
<title>SearchService&#45;&gt;SearchModule</title>
<path fill="none" stroke="black" d="M133.22,-80.58C133.22,-80.58 133.22,-103.35 133.22,-103.35"/>
<polygon fill="black" stroke="black" points="129.72,-103.35 133.22,-113.35 136.72,-103.35 129.72,-103.35"/>
</g>
</g>
</svg>
