<?xml version="1.0" encoding="UTF-8" standalone="no"?>
<!DOCTYPE svg PUBLIC "-//W3C//DTD SVG 1.1//EN"
 "http://www.w3.org/Graphics/SVG/1.1/DTD/svg11.dtd">
<!-- Generated by graphviz version 5.0.0 (20220707.1540)
 -->
<!-- Title: dependencies Pages: 1 -->
<svg width="393pt" height="174pt"
 viewBox="0.00 0.00 393.00 173.80" xmlns="http://www.w3.org/2000/svg" xmlns:xlink="http://www.w3.org/1999/xlink">
<g id="graph0" class="graph" transform="scale(1 1) rotate(0) translate(4 169.8)">
<title>dependencies</title>
<polygon fill="white" stroke="transparent" points="-4,4 -4,-169.8 389,-169.8 389,4 -4,4"/>
<text text-anchor="middle" x="192.5" y="-8.2" font-family="sans-serif" font-size="14.00">dependencies</text>
<g id="clust1" class="cluster">
<title>cluster_DomainModule</title>
<polygon fill="none" stroke="black" stroke-dasharray="1,5" points="8,-32.8 8,-157.8 377,-157.8 377,-32.8 8,-32.8"/>
</g>
<g id="clust3" class="cluster">
<title>cluster_DomainModule_imports</title>
<polygon fill="none" stroke="black" points="16,-40.8 16,-92.8 369,-92.8 369,-40.8 16,-40.8"/>
</g>
<!-- DbModule -->
<g id="node1" class="node">
<title>DbModule</title>
<polygon fill="#8dd3c7" stroke="black" points="361.16,-84.8 358.16,-88.8 337.16,-88.8 334.16,-84.8 284.84,-84.8 284.84,-48.8 361.16,-48.8 361.16,-84.8"/>
<text text-anchor="middle" x="323" y="-62.6" font-family="Times,serif" font-size="14.00">DbModule</text>
</g>
<!-- DomainModule -->
<g id="node4" class="node">
<title>DomainModule</title>
<polygon fill="#8dd3c7" stroke="black" points="255.16,-149.8 252.16,-153.8 231.16,-153.8 228.16,-149.8 150.84,-149.8 150.84,-113.8 255.16,-113.8 255.16,-149.8"/>
<text text-anchor="middle" x="203" y="-127.6" font-family="Times,serif" font-size="14.00">DomainModule</text>
</g>
<!-- DbModule&#45;&gt;DomainModule -->
<g id="edge1" class="edge">
<title>DbModule&#45;&gt;DomainModule</title>
<path fill="none" stroke="black" d="M323,-84.91C323,-104.14 323,-131.8 323,-131.8 323,-131.8 265.28,-131.8 265.28,-131.8"/>
<polygon fill="black" stroke="black" points="265.28,-128.3 255.28,-131.8 265.28,-135.3 265.28,-128.3"/>
</g>
<!-- RedisCacheModule -->
<g id="node2" class="node">
<title>RedisCacheModule</title>
<polygon fill="#8dd3c7" stroke="black" points="266.42,-84.8 263.42,-88.8 242.42,-88.8 239.42,-84.8 139.58,-84.8 139.58,-48.8 266.42,-48.8 266.42,-84.8"/>
<text text-anchor="middle" x="203" y="-62.6" font-family="Times,serif" font-size="14.00">RedisCacheModule</text>
</g>
<!-- RedisCacheModule&#45;&gt;DomainModule -->
<g id="edge2" class="edge">
<title>RedisCacheModule&#45;&gt;DomainModule</title>
<path fill="none" stroke="black" d="M203,-84.91C203,-84.91 203,-103.79 203,-103.79"/>
<polygon fill="black" stroke="black" points="199.5,-103.79 203,-113.79 206.5,-103.79 199.5,-103.79"/>
</g>
<!-- SearchModule -->
<g id="node3" class="node">
<title>SearchModule</title>
<polygon fill="#8dd3c7" stroke="black" points="121.64,-84.8 118.64,-88.8 97.64,-88.8 94.64,-84.8 24.36,-84.8 24.36,-48.8 121.64,-48.8 121.64,-84.8"/>
<text text-anchor="middle" x="73" y="-62.6" font-family="Times,serif" font-size="14.00">SearchModule</text>
</g>
<!-- SearchModule&#45;&gt;DomainModule -->
<g id="edge3" class="edge">
<title>SearchModule&#45;&gt;DomainModule</title>
<path fill="none" stroke="black" d="M73,-84.91C73,-104.14 73,-131.8 73,-131.8 73,-131.8 140.5,-131.8 140.5,-131.8"/>
<polygon fill="black" stroke="black" points="140.5,-135.3 150.5,-131.8 140.5,-128.3 140.5,-135.3"/>
</g>
</g>
</svg>
