<?xml version="1.0" encoding="UTF-8" standalone="no"?>
<!DOCTYPE svg PUBLIC "-//W3C//DTD SVG 1.1//EN"
 "http://www.w3.org/Graphics/SVG/1.1/DTD/svg11.dtd">
<!-- Generated by graphviz version 5.0.0 (20220707.1540)
 -->
<!-- Title: dependencies Pages: 1 -->
<svg width="170pt" height="250pt"
 viewBox="0.00 0.00 170.00 249.80" xmlns="http://www.w3.org/2000/svg" xmlns:xlink="http://www.w3.org/1999/xlink">
<g id="graph0" class="graph" transform="scale(1 1) rotate(0) translate(4 245.8)">
<title>dependencies</title>
<polygon fill="white" stroke="transparent" points="-4,4 -4,-245.8 166,-245.8 166,4 -4,4"/>
<text text-anchor="middle" x="81" y="-8.2" font-family="sans-serif" font-size="14.00">dependencies</text>
<g id="clust1" class="cluster">
<title>cluster_AppModule</title>
<polygon fill="none" stroke="black" stroke-dasharray="1,5" points="23,-108.8 23,-233.8 139,-233.8 139,-108.8 23,-108.8"/>
</g>
<g id="clust3" class="cluster">
<title>cluster_AppModule_imports</title>
<polygon fill="none" stroke="black" points="31,-116.8 31,-168.8 131,-168.8 131,-116.8 31,-116.8"/>
</g>
<g id="clust7" class="cluster">
<title>cluster_CatsModule</title>
<polygon fill="none" stroke="black" stroke-dasharray="1,5" points="8,-32.8 8,-100.8 154,-100.8 154,-32.8 8,-32.8"/>
</g>
<g id="clust12" class="cluster">
<title>cluster_CatsModule_providers</title>
<polygon fill="none" stroke="black" points="16,-40.8 16,-92.8 146,-92.8 146,-40.8 16,-40.8"/>
</g>
<!-- CatsModule -->
<g id="node1" class="node">
<title>CatsModule</title>
<polygon fill="#8dd3c7" stroke="black" points="123.44,-160.8 120.44,-164.8 99.44,-164.8 96.44,-160.8 38.56,-160.8 38.56,-124.8 123.44,-124.8 123.44,-160.8"/>
<text text-anchor="middle" x="81" y="-138.6" font-family="Times,serif" font-size="14.00">CatsModule</text>
</g>
<!-- AppModule -->
<g id="node2" class="node">
<title>AppModule</title>
<polygon fill="#8dd3c7" stroke="black" points="122.66,-225.8 119.66,-229.8 98.66,-229.8 95.66,-225.8 39.34,-225.8 39.34,-189.8 122.66,-189.8 122.66,-225.8"/>
<text text-anchor="middle" x="81" y="-203.6" font-family="Times,serif" font-size="14.00">AppModule</text>
</g>
<!-- CatsModule&#45;&gt;AppModule -->
<g id="edge1" class="edge">
<title>CatsModule&#45;&gt;AppModule</title>
<path fill="none" stroke="black" d="M81,-160.91C81,-160.91 81,-179.79 81,-179.79"/>
<polygon fill="black" stroke="black" points="77.5,-179.79 81,-189.79 84.5,-179.79 77.5,-179.79"/>
</g>
<!-- CatsService -->
<g id="node3" class="node">
<title>CatsService</title>
<ellipse fill="#fdb462" stroke="black" cx="81" cy="-66.8" rx="57.32" ry="18"/>
<text text-anchor="middle" x="81" y="-62.6" font-family="Times,serif" font-size="14.00">CatsService</text>
</g>
<!-- CatsService&#45;&gt;CatsModule -->
<g id="edge2" class="edge">
<title>CatsService&#45;&gt;CatsModule</title>
<path fill="none" stroke="black" d="M81,-84.81C81,-84.81 81,-114.65 81,-114.65"/>
<polygon fill="black" stroke="black" points="77.5,-114.65 81,-124.65 84.5,-114.65 77.5,-114.65"/>
</g>
</g>
</svg>
